HIERARCHY
ROOT Hips
{
	OFFSET 0.000000 8.830580 0.000000
	CHANNELS 6 Xposition Yposition Zposition Zrotation Yrotation Xrotation 
	JOINT Spine
	{
		OFFSET 0.000000 0.010000 0.000000
		CHANNELS 3 Zrotation Yrotation Xrotation
		JOINT Spine1
		{
			OFFSET 0.000000 2.459130 0.000000
			CHANNELS 3 Zrotation Yrotation Xrotation
			JOINT Neck
			{
				OFFSET 0.000000 2.484630 0.000000
				CHANNELS 3 Zrotation Yrotation Xrotation
				JOINT Head_virtual
				{
					OFFSET 0.000000 0.000000 0.000000
					CHANNELS 3 Zrotation Yrotation Xrotation
					JOINT Head
					{
						OFFSET 0.000000 0.927525 0.000000
						CHANNELS 3 Zrotation Yrotation Xrotation
						End Site
						{
							OFFSET 0.000000 0.000000 0.000000
						}
					}
				}
				JOINT LeftUpArm_virtual
				{
					OFFSET 0.000000 0.000000 0.000000
					CHANNELS 3 Zrotation Yrotation Xrotation
					JOINT LeftUpArm
					{
						OFFSET 1.248820 0.000000 0.000000
						CHANNELS 3 Zrotation Yrotation Xrotation
						JOINT LeftForeArm
						{
							OFFSET 2.597580 0.000000 0.000000
							CHANNELS 3 Zrotation Yrotation Xrotation
							JOINT LeftHand
							{
								OFFSET 2.455420 0.000000 0.000000
								CHANNELS 3 Zrotation Yrotation Xrotation
								End Site
								{
									OFFSET 0.000000 0.000000 0.000000
								}
							}
						}
					}
				}
				JOINT RightUpArm_virtual
				{
					OFFSET -0.000000 -0.000000 -0.000000
					CHANNELS 3 Zrotation Yrotation Xrotation
					JOINT RightUpArm
					{
						OFFSET -1.248820 -0.000000 -0.000000
						CHANNELS 3 Zrotation Yrotation Xrotation
						JOINT RightForeArm
						{
							OFFSET -2.597580 -0.000000 -0.000000
							CHANNELS 3 Zrotation Yrotation Xrotation
							JOINT RightHand
							{
								OFFSET -2.455420 -0.000000 -0.000000
								CHANNELS 3 Zrotation Yrotation Xrotation
								End Site
								{
									OFFSET 0.000000 0.000000 0.000000
								}
							}
						}
					}
				}
			}
		}
	}
	JOINT LeftUpLeg
	{
		OFFSET 1.271939 0.000000 0.000000
		CHANNELS 3 Zrotation Yrotation Xrotation
		JOINT LeftLowLeg
		{
			OFFSET 0.000000 -4.342910 0.000000
			CHANNELS 3 Zrotation Yrotation Xrotation
			JOINT LeftFoot
			{
				OFFSET 0.000000 -4.487670 0.000000
				CHANNELS 3 Zrotation Yrotation Xrotation
				JOINT LeftToeBase
				{
					OFFSET 0.000000 0.000000 1.515070
					CHANNELS 3 Zrotation Yrotation Xrotation
					End Site
					{
						OFFSET 0.000000 0.000000 0.000000
					}
				}
			}
		}
	}
	JOINT RightUpLeg
	{
		OFFSET -1.271939 0.000000 0.000000
		CHANNELS 3 Zrotation Yrotation Xrotation
		JOINT RightLowLeg
		{
			OFFSET 0.000000 -4.342910 0.000000
			CHANNELS 3 Zrotation Yrotation Xrotation
			JOINT RightFoot
			{
				OFFSET 0.000000 -4.487670 0.000000
				CHANNELS 3 Zrotation Yrotation Xrotation
				JOINT RightToeBase
				{
					OFFSET 0.000000 0.000000 1.515070
					CHANNELS 3 Zrotation Yrotation Xrotation
					End Site
					{
						OFFSET 0.000000 0.000000 0.000000
					}
				}
			}
		}
	}
}
MOTION
Frames: 5
Frame Time: 0.041667
-19.806924 7.148364 38.254684 -172.846997 -3.630722 169.274359 -2.363664 -13.388574 45.299061 1.080410 11.305692 -9.912118 0.000000 0.000000 0.000000 -37.214889 8.955624 10.737194 -1.067818 14.497624 -116.699430 -4.894140 -24.108000 14.079400 -78.448898 -36.818600 17.070499 0.000000 5.637910 0.000000 61.864498 -43.262299 -92.842300 7.205360 25.282301 28.509003 58.671200 35.039200 31.277700 0.000000 31.343599 0.000000 -75.827202 2.933880 8.387390 5.452875 -1.617646 -47.241688 0.000000 0.000000 60.310398 -11.615248 1.343238 -13.334432 0.000000 0.000000 -39.556700 10.993500 -8.096136 -45.291810 0.000000 0.000000 52.003601 3.350112 -3.081320 15.660342 0.000000 0.000000 -48.431999 
-19.807064 7.149011 38.256602 -172.836625 -3.712003 169.225049 -2.367763 -13.511214 45.390328 1.012572 11.234870 -9.856166 0.000000 0.000000 0.000000 -37.182289 8.953367 10.600910 -1.029657 14.462163 -116.739877 -4.929330 -24.103300 14.131900 -78.256104 -36.756599 17.250200 0.000000 5.433490 0.000000 61.501999 -42.667801 -93.259201 7.187770 25.187300 28.464996 58.691299 35.226398 31.530300 0.000000 31.366800 0.000000 -75.833397 2.792420 8.384830 5.536358 -1.789942 -47.159339 0.000000 0.000000 59.339298 -12.306257 2.832829 -7.829226 0.000000 0.000000 -39.510300 10.946701 -8.092436 -45.266079 0.000000 0.000000 52.027802 3.439185 -3.169138 15.667064 0.000000 0.000000 -48.460300 
-19.806545 7.148974 38.259156 -172.855907 -3.771329 169.163378 -2.396544 -13.589370 45.507162 0.902977 11.164912 -9.778933 0.000000 0.000000 0.000000 -37.095106 8.941900 10.377509 -1.008885 14.424391 -116.772191 -5.117060 -24.262100 14.294100 -77.781502 -36.697601 16.680300 0.000000 5.235710 0.000000 60.792801 -42.570400 -92.847198 7.178240 24.975599 28.330994 58.780998 35.422199 31.736401 0.000000 31.339199 0.000000 -75.830101 2.734780 8.234900 5.616373 -1.938160 -46.946072 0.000000 0.000000 57.845299 -13.312896 4.585308 -0.177568 0.000000 0.000000 -40.135000 10.895263 -8.093918 -45.222832 0.000000 0.000000 52.041000 3.476888 -3.241380 15.646274 0.000000 0.000000 -48.307999 
-19.805834 7.147809 38.261811 -172.873975 -3.794052 169.105197 -2.429567 -13.617710 45.624090 0.745561 11.120694 -9.663889 0.000000 0.000000 0.000000 -36.771539 8.744560 10.144065 -1.158337 14.445782 -116.908767 -5.499010 -24.656601 14.662800 -76.942902 -36.547600 16.215200 0.000000 4.849640 0.000000 59.685200 -42.084202 -92.591499 7.240760 24.692699 28.167999 58.762402 35.549400 31.931700 0.000000 31.416201 0.000000 -75.924202 2.754350 8.126430 5.740763 -2.107273 -46.530460 0.000000 0.000000 55.801102 -14.200304 6.507605 7.411127 0.000000 0.000000 -33.423800 10.867289 -8.061911 -45.156746 0.000000 0.000000 52.003502 3.457229 -3.340629 15.606549 0.000000 0.000000 -48.220901 
-19.807476 7.145267 38.264123 -172.868588 -3.753996 169.089256 -2.429267 -13.691021 45.729775 0.466688 11.090290 -9.506217 0.000000 0.000000 0.000000 -36.578758 8.713968 9.677531 -1.121721 14.377745 -117.118164 -6.029480 -24.934700 15.180300 -75.910301 -36.556301 15.867000 0.000000 4.471750 0.000000 61.637402 -42.313099 -93.770500 7.310180 24.319300 28.015991 58.712898 35.730900 32.124199 0.000000 31.661900 0.000000 -76.039497 2.861800 8.125820 5.833975 -2.249970 -46.049001 0.000000 0.000000 54.311501 -16.442975 6.665476 6.943179 0.000000 0.000000 -40.691900 10.878535 -8.022261 -45.142956 0.000000 0.000000 51.982399 3.272253 -3.395240 15.615515 0.000000 0.000000 -48.153000 
